<svg xmlns="http://www.w3.org/2000/svg" width="24" height="24" fill="none"><path fill="#fe4a3c" d="M12.0002 2C6.48044 2 2 6.48085 2 12.0002c0 2.3376.82268 4.5024 2.16441 6.2124 1.08241-1.5369 2.251-2.9871 3.7232-4.1776.0435-.0435.15161-.1082.28128-.1947.60603-.4545 1.03891-1.1255 1.14703-1.8832v-.0215c.36785-2.44612 1.36368-3.29034 4.15608-3.29034.2382 0 .5195 0 .7792.02154 1.4287.06504 2.251.47638 2.3376.69262.065.10811.0435.23818.0215.36784l-.1081-.02154c-.8873-.10812-2.2295.15161-2.4242 1.12548-.1081.541.0216 1.1471.0651 1.6885.065.5629.1081 1.147.1081 1.71 0 .0434-.0435.2597 0 .2812-1.5153-1.4502-5.02185.3679-6.12581 1.169.10812-.0435.21665-.0866.34631-.1301 1.06046-.3678 4.2427-1.3201 5.4763-.2597 1.0389 1.2771.1081 3.6366-.6711 4.8052-.4544.6926-1.0174 1.3202-1.645 1.8616h.3679C17.5196 21.9569 22 17.4761 22 11.9567 22 6.43736 17.5415 2 12.0002 2Zm1.147 5.41124c-1.0824 0-1.9697-.88731-1.9697-1.96972 0-1.08241.8873-1.96972 1.9697-1.96972 1.0825 0 1.9698.88731 1.9698 1.96972 0 1.08241-.8658 1.96972-1.9698 1.96972Z"/></svg>
