<?xml version="1.0" encoding="UTF-8"?><svg id="StarkNet_logo" xmlns="http://www.w3.org/2000/svg" viewBox="0 0 500 500"><defs><style>.cls-1{fill:#fe4a3c;}</style></defs><path class="cls-1" d="M250,4.5C114.2,4.5,3.97,114.74,3.97,250.53c0,57.51,20.24,110.77,53.25,152.84,26.63-37.81,55.38-73.49,91.6-102.78,1.07-1.07,3.73-2.66,6.92-4.79,14.91-11.18,25.56-27.69,28.22-46.33v-.53c9.05-60.18,33.55-80.95,102.25-80.95,5.86,0,12.78,0,19.17,.53,35.15,1.6,55.38,11.72,57.51,17.04,1.6,2.66,1.07,5.86,.53,9.05l-2.66-.53c-21.83-2.66-54.85,3.73-59.64,27.69-2.66,13.31,.53,28.22,1.6,41.54,1.6,13.85,2.66,28.22,2.66,42.07,0,1.07-1.07,6.39,0,6.92-37.28-35.68-123.55,9.05-150.71,28.76,2.66-1.07,5.33-2.13,8.52-3.2,26.09-9.05,104.38-32.48,134.73-6.39,25.56,31.42,2.66,89.47-16.51,118.22-11.18,17.04-25.03,32.48-40.47,45.8h9.05c135.8,0,246.03-110.24,246.03-246.03S386.33,4.5,250,4.5Zm28.22,133.13c-26.63,0-48.46-21.83-48.46-48.46s21.83-48.46,48.46-48.46,48.46,21.83,48.46,48.46-21.3,48.46-48.46,48.46Z"/></svg>