<svg width="92" height="16" viewBox="0 0 92 92" fill="none" xmlns="http://www.w3.org/2000/svg">
  <path fill-rule="evenodd" clip-rule="evenodd" d="M91.9996 45.9991C91.9996 71.404 71.4053 91.9982 46.0005 91.9982C20.5956 91.9982 0 71.404 0 45.9991C0 20.5942 20.5956 0 46.0005 0C71.4053 0 91.9996 20.5942 91.9996 45.9991Z" fill="#28286E"/>
  <path fill-rule="evenodd" clip-rule="evenodd" d="M67.4061 33.6992L66.2364 30.0854C65.9987 29.3505 65.4186 28.7785 64.6809 28.553L61.0495 27.4363C60.5468 27.2828 60.5427 26.5736 61.0413 26.4119L64.6564 25.2422C65.39 25.0045 65.962 24.4244 66.1889 23.6867L67.3042 20.0553C67.4578 19.554 68.1669 19.5485 68.3286 20.0485L69.4983 23.6622C69.736 24.3958 70.3161 24.9678 71.0538 25.1947L74.6852 26.31C75.1879 26.4649 75.1933 27.1727 74.6934 27.3344L71.0783 28.5041C70.3447 28.7418 69.7727 29.3233 69.5458 30.061L68.4305 33.691C68.277 34.1937 67.5678 34.1991 67.4061 33.6992Z" fill="#FAFAFA"/>
  <path fill-rule="evenodd" clip-rule="evenodd" d="M4.18237 45.2697C5.27601 43.1273 7.43882 41.5133 9.68586 40.4931C11.956 39.4837 14.4516 38.8642 16.9025 38.6631C21.8503 38.2161 26.6704 39.0435 31.0613 40.474C33.3232 41.1479 35.3475 42.0839 37.4383 43.0295C38.4545 43.5186 39.4095 44.0728 40.3931 44.6081L43.1102 46.1827C46.0936 48.0113 48.986 49.6307 51.7031 50.8887C54.4269 52.1358 56.8886 52.9795 59.209 53.4101C61.5294 53.8462 63.8879 53.8408 66.7884 53.1751C69.6658 52.5244 72.9032 51.121 76.2874 49.3209C79.6919 47.5195 83.1834 45.3105 87.1666 43.1517C86.7672 47.6635 85.4902 51.894 83.4958 55.9792C81.4526 60.0154 78.6105 63.9525 74.4669 67.141C70.4021 70.3553 64.8199 72.5956 59.137 72.9325C53.4515 73.317 48.0431 72.0644 43.4417 70.1801C38.8227 68.2686 34.8312 65.7566 31.2936 62.9838C30.3168 62.2176 29.7924 61.7829 29.071 61.1729L27.0563 59.4081C25.6991 58.3458 24.384 57.0755 23.0404 56.0226C20.36 53.7824 17.7081 51.5381 14.8008 49.5926C13.3349 48.6036 11.8229 47.6866 10.1084 46.8742C9.25655 46.4815 8.35176 46.1161 7.3804 45.8281C6.38594 45.5034 5.37518 45.3105 4.18237 45.2697Z" fill="#FE4A3C"/>
  <path fill-rule="evenodd" clip-rule="evenodd" d="M4.18237 45.2699C4.74074 40.6277 6.90491 36.2736 10.3733 32.5674C13.824 28.8967 19.2147 26.0668 25.1964 25.6918C28.1485 25.4948 31.1455 25.8236 33.9006 26.5871C36.6435 27.3479 39.2139 28.4565 41.5302 29.762C42.6877 30.4182 43.7705 31.1355 44.8492 31.8596L47.7239 34.036L52.2112 37.5764C55.1239 39.8955 57.9035 42.0406 60.4725 43.8122C63.066 45.5864 65.275 46.8825 67.3848 47.6419C69.4756 48.4706 72.1166 48.6826 75.6081 47.8049C77.3416 47.4055 79.1498 46.676 81.079 45.8853C82.9972 45.0756 84.9889 44.1097 87.1666 43.1519C86.9044 45.4859 86.4303 47.8104 85.5296 49.9827C84.6642 52.1849 83.5244 54.3396 81.9308 56.3488C81.1156 57.327 80.2421 58.3106 79.2232 59.2181C78.2043 60.1039 77.0753 60.9448 75.8282 61.6825C73.3407 63.1239 70.3899 64.1768 67.3631 64.5518C64.3362 64.9322 61.2971 64.742 58.5298 64.1551C55.7475 63.5845 53.2124 62.6647 50.8852 61.6024C46.2471 59.445 42.3671 56.7333 38.9368 53.8627C37.2141 52.4294 35.5988 50.9323 34.0691 49.4121L32.2622 47.5984C31.7174 47.0727 31.1672 46.5442 30.6225 46.0606C28.427 44.1192 26.3892 42.6357 24.1449 41.7105C21.9169 40.7418 19.0653 40.3438 15.567 40.9986C12.0823 41.6466 8.25938 43.1533 4.18237 45.2699Z" fill="#FAFAFA"/>
  <path fill-rule="evenodd" clip-rule="evenodd" d="M22.5697 69.2087C22.5697 70.5822 21.4557 71.6962 20.0822 71.6962C18.7087 71.6962 17.5961 70.5822 17.5961 69.2087C17.5961 67.8352 18.7087 66.7212 20.0822 66.7212C21.4557 66.7212 22.5697 67.8352 22.5697 69.2087Z" fill="#FAFAFA"/>
  <path fill-rule="evenodd" clip-rule="evenodd" d="M22.5697 69.2087C22.5697 70.5822 21.4557 71.6962 20.0822 71.6962C18.7087 71.6962 17.5961 70.5822 17.5961 69.2087C17.5961 67.8352 18.7087 66.7212 20.0822 66.7212C21.4557 66.7212 22.5697 67.8352 22.5697 69.2087Z" fill="#FAFAFA"/>
</svg>
