<svg width="14" height="8" viewBox="0 0 14 8" fill="none" xmlns="http://www.w3.org/2000/svg">
<path d="M2.16942 0.361808C1.89985 0.0473137 1.42638 0.0108924 1.11188 0.280459C0.797388 0.550026 0.760967 1.0235 1.03053 1.338L2.16942 0.361808ZM6.99998 7.1499L6.43053 7.638C6.57302 7.80423 6.78103 7.8999 6.99998 7.8999C7.21892 7.8999 7.42693 7.80423 7.56942 7.638L6.99998 7.1499ZM12.9694 1.338C13.239 1.0235 13.2026 0.550026 12.8881 0.280459C12.5736 0.0108924 12.1001 0.0473137 11.8305 0.361808L12.9694 1.338ZM1.03053 1.338L6.43053 7.638L7.56942 6.66181L2.16942 0.361808L1.03053 1.338ZM7.56942 7.638L12.9694 1.338L11.8305 0.361808L6.43053 6.66181L7.56942 7.638Z" fill="#C5CFE4"/>
</svg>
