<svg width="24" height="24" viewBox="0 0 24 24" fill="none" xmlns="http://www.w3.org/2000/svg">
<path d="M3 15H13C13.2652 15 13.5196 14.8946 13.7071 14.7071C13.8946 14.5196 14 14.2652 14 14C14 13.7348 13.8946 13.4804 13.7071 13.2929C13.5196 13.1054 13.2652 13 13 13H3C2.73478 13 2.48043 13.1054 2.29289 13.2929C2.10536 13.4804 2 13.7348 2 14C2 14.2652 2.10536 14.5196 2.29289 14.7071C2.48043 14.8946 2.73478 15 3 15ZM3 11H13C13.2652 11 13.5196 10.8946 13.7071 10.7071C13.8946 10.5196 14 10.2652 14 10C14 9.73478 13.8946 9.48043 13.7071 9.29289C13.5196 9.10536 13.2652 9 13 9H3C2.73478 9 2.48043 9.10536 2.29289 9.29289C2.10536 9.48043 2 9.73478 2 10C2 10.2652 2.10536 10.5196 2.29289 10.7071C2.48043 10.8946 2.73478 11 3 11ZM3 7H21C21.2652 7 21.5196 6.89464 21.7071 6.70711C21.8946 6.51957 22 6.26522 22 6C22 5.73478 21.8946 5.48043 21.7071 5.29289C21.5196 5.10536 21.2652 5 21 5H3C2.73478 5 2.48043 5.10536 2.29289 5.29289C2.10536 5.48043 2 5.73478 2 6C2 6.26522 2.10536 6.51957 2.29289 6.70711C2.48043 6.89464 2.73478 7 3 7ZM21 17H3C2.73478 17 2.48043 17.1054 2.29289 17.2929C2.10536 17.4804 2 17.7348 2 18C2 18.2652 2.10536 18.5196 2.29289 18.7071C2.48043 18.8946 2.73478 19 3 19H21C21.2652 19 21.5196 18.8946 21.7071 18.7071C21.8946 18.5196 22 18.2652 22 18C22 17.7348 21.8946 17.4804 21.7071 17.2929C21.5196 17.1054 21.2652 17 21 17ZM19.64 9.57C19.5412 9.47449 19.4239 9.40036 19.2952 9.35223C19.1665 9.30409 19.0293 9.28299 18.8921 9.29023C18.7549 9.29747 18.6207 9.3329 18.4978 9.39432C18.3749 9.45573 18.266 9.54181 18.1778 9.64718C18.0897 9.75255 18.0242 9.87495 17.9854 10.0068C17.9467 10.1386 17.9355 10.2769 17.9526 10.4133C17.9697 10.5496 18.0147 10.6809 18.0848 10.7991C18.1549 10.9172 18.2486 11.0197 18.36 11.1L19.44 12L18.36 12.9C18.2587 12.9839 18.175 13.087 18.1137 13.2034C18.0523 13.3197 18.0145 13.4471 18.0025 13.578C17.9904 13.709 18.0043 13.8411 18.0433 13.9667C18.0824 14.0923 18.1458 14.209 18.23 14.31C18.324 14.4229 18.4418 14.5137 18.5748 14.5759C18.7079 14.6381 18.8531 14.6702 19 14.67C19.2349 14.6677 19.4615 14.5827 19.64 14.43L21.64 12.77C21.7532 12.6762 21.8444 12.5585 21.907 12.4254C21.9695 12.2923 22.002 12.1471 22.002 12C22.002 11.8529 21.9695 11.7077 21.907 11.5746C21.8444 11.4415 21.7532 11.3238 21.64 11.23L19.64 9.57Z" fill="#8D8D8D"/>
</svg>
