<svg width="20" height="20" viewBox="0 0 20 20" fill="none" xmlns="http://www.w3.org/2000/svg">
<mask id="path-1-inside-1_5_514" fill="white">
<path fill-rule="evenodd" clip-rule="evenodd" d="M1 5C1 3.34315 2.34315 2 4 2H16C17.6569 2 19 3.34315 19 5V15C19 16.6569 17.6569 18 16 18H4C2.34315 18 1 16.6569 1 15V5ZM9 3.29925C9.35898 3.29925 9.65 3.59026 9.65 3.94925V16.0508C9.65 16.4098 9.35898 16.7008 9 16.7008C8.64102 16.7008 8.35 16.4098 8.35 16.0508V3.94925C8.35 3.59026 8.64102 3.29925 9 3.29925ZM4 5.35C3.64102 5.35 3.35 5.64102 3.35 6C3.35 6.35898 3.64102 6.65 4 6.65H6C6.35898 6.65 6.65 6.35898 6.65 6C6.65 5.64102 6.35898 5.35 6 5.35H4ZM3.35 9C3.35 8.64102 3.64102 8.35 4 8.35H6C6.35898 8.35 6.65 8.64102 6.65 9C6.65 9.35898 6.35898 9.65 6 9.65H4C3.64102 9.65 3.35 9.35898 3.35 9ZM4 11.35C3.64102 11.35 3.35 11.641 3.35 12C3.35 12.359 3.64102 12.65 4 12.65H6C6.35898 12.65 6.65 12.359 6.65 12C6.65 11.641 6.35898 11.35 6 11.35H4Z"/>
</mask>
<path fill-rule="evenodd" clip-rule="evenodd" d="M1 5C1 3.34315 2.34315 2 4 2H16C17.6569 2 19 3.34315 19 5V15C19 16.6569 17.6569 18 16 18H4C2.34315 18 1 16.6569 1 15V5ZM9 3.29925C9.35898 3.29925 9.65 3.59026 9.65 3.94925V16.0508C9.65 16.4098 9.35898 16.7008 9 16.7008C8.64102 16.7008 8.35 16.4098 8.35 16.0508V3.94925C8.35 3.59026 8.64102 3.29925 9 3.29925ZM4 5.35C3.64102 5.35 3.35 5.64102 3.35 6C3.35 6.35898 3.64102 6.65 4 6.65H6C6.35898 6.65 6.65 6.35898 6.65 6C6.65 5.64102 6.35898 5.35 6 5.35H4ZM3.35 9C3.35 8.64102 3.64102 8.35 4 8.35H6C6.35898 8.35 6.65 8.64102 6.65 9C6.65 9.35898 6.35898 9.65 6 9.65H4C3.64102 9.65 3.35 9.35898 3.35 9ZM4 11.35C3.64102 11.35 3.35 11.641 3.35 12C3.35 12.359 3.64102 12.65 4 12.65H6C6.35898 12.65 6.65 12.359 6.65 12C6.65 11.641 6.35898 11.35 6 11.35H4Z" fill="#4070F4"/>
<path d="M4 0.7C1.62518 0.7 -0.3 2.62518 -0.3 5H2.3C2.3 4.06112 3.06112 3.3 4 3.3V0.7ZM16 0.7H4V3.3H16V0.7ZM20.3 5C20.3 2.62518 18.3748 0.7 16 0.7V3.3C16.9389 3.3 17.7 4.06112 17.7 5H20.3ZM20.3 15V5H17.7V15H20.3ZM16 19.3C18.3748 19.3 20.3 17.3748 20.3 15H17.7C17.7 15.9389 16.9389 16.7 16 16.7V19.3ZM4 19.3H16V16.7H4V19.3ZM-0.3 15C-0.3 17.3748 1.62518 19.3 4 19.3V16.7C3.06112 16.7 2.3 15.9389 2.3 15H-0.3ZM-0.3 5V15H2.3V5H-0.3ZM10.95 3.94925C10.95 2.87229 10.077 1.99925 9 1.99925V4.59925C8.64101 4.59925 8.35 4.30823 8.35 3.94925H10.95ZM10.95 16.0508V3.94925H8.35V16.0508H10.95ZM9 18.0008C10.077 18.0008 10.95 17.1278 10.95 16.0508H8.35C8.35 15.6918 8.64101 15.4008 9 15.4008V18.0008ZM7.05 16.0508C7.05 17.1278 7.92305 18.0008 9 18.0008V15.4008C9.35898 15.4008 9.65 15.6918 9.65 16.0508H7.05ZM7.05 3.94925V16.0508H9.65V3.94925H7.05ZM9 1.99925C7.92305 1.99925 7.05 2.87229 7.05 3.94925H9.65C9.65 4.30823 9.35898 4.59925 9 4.59925V1.99925ZM4.65 6C4.65 6.35899 4.35899 6.65 4 6.65V4.05C2.92304 4.05 2.05 4.92304 2.05 6H4.65ZM4 5.35C4.35899 5.35 4.65 5.64101 4.65 6H2.05C2.05 7.07696 2.92304 7.95 4 7.95V5.35ZM6 5.35H4V7.95H6V5.35ZM5.35 6C5.35 5.64101 5.64101 5.35 6 5.35V7.95C7.07696 7.95 7.95 7.07696 7.95 6H5.35ZM6 6.65C5.64101 6.65 5.35 6.35899 5.35 6H7.95C7.95 4.92304 7.07696 4.05 6 4.05V6.65ZM4 6.65H6V4.05H4V6.65ZM4 7.05C2.92304 7.05 2.05 7.92304 2.05 9H4.65C4.65 9.35899 4.35899 9.65 4 9.65V7.05ZM6 7.05H4V9.65H6V7.05ZM7.95 9C7.95 7.92304 7.07696 7.05 6 7.05V9.65C5.64101 9.65 5.35 9.35899 5.35 9H7.95ZM6 10.95C7.07696 10.95 7.95 10.077 7.95 9H5.35C5.35 8.64101 5.64101 8.35 6 8.35V10.95ZM4 10.95H6V8.35H4V10.95ZM2.05 9C2.05 10.077 2.92304 10.95 4 10.95V8.35C4.35899 8.35 4.65 8.64101 4.65 9H2.05ZM4.65 12C4.65 12.359 4.35898 12.65 4 12.65V10.05C2.92305 10.05 2.05 10.923 2.05 12H4.65ZM4 11.35C4.35898 11.35 4.65 11.641 4.65 12H2.05C2.05 13.077 2.92305 13.95 4 13.95V11.35ZM6 11.35H4V13.95H6V11.35ZM5.35 12C5.35 11.641 5.64102 11.35 6 11.35V13.95C7.07695 13.95 7.95 13.077 7.95 12H5.35ZM6 12.65C5.64102 12.65 5.35 12.359 5.35 12H7.95C7.95 10.923 7.07695 10.05 6 10.05V12.65ZM4 12.65H6V10.05H4V12.65Z" fill="#4070F4" mask="url(#path-1-inside-1_5_514)"/>
</svg>
