<svg width="78" height="26" viewBox="0 0 78 26" fill="none" xmlns="http://www.w3.org/2000/svg">
<path d="M9.89994 0.49835H0.099939V24.9984H9.89994C16.6549 24.9984 21.7999 19.6784 21.7999 12.7484C21.7999 5.81835 16.6549 0.49835 9.89994 0.49835ZM9.89994 19.6084H5.69994V5.88835H9.89994C13.7499 5.88835 16.4099 8.54835 16.4099 12.7484C16.4099 16.9484 13.7499 19.6084 9.89994 19.6084ZM33.1736 25.4884C38.3186 25.4884 42.4486 21.4634 42.4486 16.2484C42.4486 11.0334 38.3186 7.00835 33.1736 7.00835C28.0286 7.00835 23.8986 11.0334 23.8986 16.2484C23.8986 21.4634 28.0286 25.4884 33.1736 25.4884ZM33.1736 20.3784C30.8986 20.3784 29.1486 18.7334 29.1486 16.2484C29.1486 13.7634 30.8986 12.1184 33.1736 12.1184C35.4486 12.1184 37.1986 13.7634 37.1986 16.2484C37.1986 18.7334 35.4486 20.3784 33.1736 20.3784ZM53.8181 25.4884C57.2481 25.4884 60.2231 23.7034 61.7281 20.9734L57.1431 18.3484C56.5831 19.5734 55.2881 20.3084 53.7481 20.3084C51.4731 20.3084 49.7931 18.6634 49.7931 16.2484C49.7931 13.8334 51.4731 12.1884 53.7481 12.1884C55.2881 12.1884 56.5481 12.9234 57.1431 14.1484L61.7281 11.4884C60.2231 8.79335 57.2131 7.00835 53.8181 7.00835C48.4981 7.00835 44.5431 11.0334 44.5431 16.2484C44.5431 21.4634 48.4981 25.4884 53.8181 25.4884ZM68.811 12.6084C68.811 11.9784 69.371 11.6284 70.281 11.6284C71.436 11.6284 72.136 12.2584 72.626 13.1684L77.106 10.7534C75.636 8.26835 73.116 7.00835 70.281 7.00835C66.641 7.00835 63.421 8.93335 63.421 12.7484C63.421 18.8034 72.031 17.7884 72.031 19.7134C72.031 20.4134 71.401 20.7984 70.141 20.7984C68.601 20.7984 67.621 20.0634 67.166 18.7334L62.616 21.3234C63.981 24.1584 66.641 25.4884 70.141 25.4884C73.921 25.4884 77.421 23.7734 77.421 19.7484C77.421 13.2734 68.811 14.6034 68.811 12.6084Z" fill="#0C152E"/>
</svg>
