<svg width="24" height="24" viewBox="0 0 24 24" fill="none" xmlns="http://www.w3.org/2000/svg">
<path fill-rule="evenodd" clip-rule="evenodd" d="M13.1999 2.39922C13.1999 1.73648 12.6626 1.19922 11.9999 1.19922C11.3372 1.19922 10.7999 1.73648 10.7999 2.39922V9.59922V10.1992C10.7999 10.5306 10.5313 10.7992 10.1999 10.7992C9.86853 10.7992 9.5999 10.5306 9.5999 10.1992V9.59922V3.59922C9.5999 2.93648 9.06264 2.39922 8.3999 2.39922C7.73716 2.39922 7.1999 2.93648 7.1999 3.59922V9.59922V10.1992C7.1999 10.5306 6.93127 10.7992 6.5999 10.7992C6.26853 10.7992 5.9999 10.5306 5.9999 10.1992V9.59922V5.99922C5.9999 5.33648 5.46264 4.79922 4.7999 4.79922C4.13716 4.79922 3.5999 5.33648 3.5999 5.99922V13.1992V14.3992C3.5999 19.0384 7.36071 22.7992 11.9999 22.7992C16.6391 22.7992 20.3999 19.0384 20.3999 14.3992V13.1992V9.59922C20.3999 8.93648 19.8626 8.39922 19.1999 8.39922C18.5372 8.39922 17.9999 8.93648 17.9999 9.59922V13.1992V13.7992C17.9999 14.1306 17.7313 14.3992 17.3999 14.3992C17.0685 14.3992 16.7999 14.1306 16.7999 13.7992V13.1992V11.9992V9.59922V3.59922C16.7999 2.93648 16.2626 2.39922 15.5999 2.39922C14.9372 2.39922 14.3999 2.93648 14.3999 3.59922V9.59922V10.1992C14.3999 10.5306 14.1313 10.7992 13.7999 10.7992C13.4685 10.7992 13.1999 10.5306 13.1999 10.1992V9.59922V2.39922Z" fill="#0F172A"/>
</svg>
