<svg width="20" height="21" viewBox="0 0 20 21" fill="none" xmlns="http://www.w3.org/2000/svg">
<path fill-rule="evenodd" clip-rule="evenodd" d="M4.25 6C3.83579 6 3.5 6.33579 3.5 6.75V15.25C3.5 15.6642 3.83579 16 4.25 16H12.75C13.1642 16 13.5 15.6642 13.5 15.25V11.25C13.5 10.8358 13.8358 10.5 14.25 10.5C14.6642 10.5 15 10.8358 15 11.25V15.25C15 16.4926 13.9926 17.5 12.75 17.5H4.25C3.00736 17.5 2 16.4926 2 15.25V6.75C2 5.50736 3.00736 4.5 4.25 4.5H9.25C9.66421 4.5 10 4.83579 10 5.25C10 5.66421 9.66421 6 9.25 6H4.25Z" fill="#6B7280"/>
<path fill-rule="evenodd" clip-rule="evenodd" d="M6.19385 13.2532C6.47175 13.5603 6.94603 13.5841 7.25319 13.3062L16.5 4.93999V7.75C16.5 8.16421 16.8358 8.5 17.25 8.5C17.6642 8.5 18 8.16421 18 7.75V3.25C18 2.83579 17.6642 2.5 17.25 2.5H12.75C12.3358 2.5 12 2.83579 12 3.25C12 3.66421 12.3358 4 12.75 4H15.3032L6.24682 12.1938C5.93966 12.4717 5.91595 12.946 6.19385 13.2532Z" fill="#6B7280"/>
</svg>
