<?xml version="1.0" encoding="utf-8"?>
<!-- Generator: Adobe Illustrator 23.0.3, SVG Export Plug-In . SVG Version: 6.00 Build 0)  -->
<svg version="1.1" id="Layer_1" xmlns="http://www.w3.org/2000/svg" xmlns:xlink="http://www.w3.org/1999/xlink" x="0px" y="0px"
	 viewBox="0 0 115.4 136.3" style="enable-background:new 0 0 115.4 136.3;" xml:space="preserve">
<style type="text/css">
	.st0{fill:#0C152E;}
</style>
<g>
	<g>
		<path class="st0" d="M45.1,136.1l17.8-20c0.3-0.3,0.1-0.8-0.4-0.8H42.9c-0.1,0-0.3-0.1-0.4-0.2L25.9,96.5
			c-0.1-0.2-0.2-0.4-0.1-0.6l27.8-47.7c0.1-0.2,0.1-0.4,0-0.5L42.1,27.9c-0.2-0.3-0.7-0.3-0.9,0L0.1,98.5C0,98.7,0,98.9,0.1,99.1
			l33,37.1c0.1,0.1,0.2,0.2,0.4,0.2h11.2C44.8,136.3,45,136.2,45.1,136.1z"/>
		<path class="st0" d="M57.3,0.3L45.7,20.1c-0.1,0.2-0.1,0.4,0,0.5l12,20.6l0,0l31.8,54.6c0.1,0.2,0.1,0.4-0.1,0.6l-16.8,18.8h0
			l-17.9,20.2c-0.3,0.3-0.1,0.8,0.4,0.8h26.8c0.1,0,0.3-0.1,0.4-0.2l33-37.1c0.1-0.2,0.2-0.4,0.1-0.6L58.1,0.3
			C58-0.1,57.5-0.1,57.3,0.3z"/>
	</g>
</g>
</svg>
