<svg width="18" height="18" viewBox="0 0 18 18" fill="none" xmlns="http://www.w3.org/2000/svg">
<path fill-rule="evenodd" clip-rule="evenodd" d="M8.29995 1.94995C4.79294 1.94995 1.94995 4.79294 1.94995 8.29995C1.94995 11.807 4.79294 14.6499 8.29995 14.6499C9.78313 14.6499 11.1476 14.1414 12.2284 13.2893L14.7696 15.8305C15.0625 16.1234 15.5374 16.1234 15.8303 15.8305C16.1231 15.5376 16.1231 15.0627 15.8303 14.7698L13.2891 12.2286C14.1414 11.1478 14.6499 9.78325 14.6499 8.29995C14.6499 4.79294 11.807 1.94995 8.29995 1.94995ZM11.7947 11.6628C12.6339 10.7909 13.1499 9.6057 13.1499 8.29995C13.1499 5.62137 10.9785 3.44995 8.29995 3.44995C5.62137 3.44995 3.44995 5.62137 3.44995 8.29995C3.44995 10.9785 5.62137 13.1499 8.29995 13.1499C9.6056 13.1499 10.7907 12.634 11.6626 11.7949C11.6816 11.7706 11.7022 11.7472 11.7246 11.7248C11.747 11.7025 11.7704 11.6818 11.7947 11.6628Z" fill="white"/>
</svg>
