<?xml version="1.0" standalone="yes"?>
<svg xmlns="http://www.w3.org/2000/svg" width="300" height="78">
<path style="fill:#010101; stroke:none;" d="M0 0L0 31L1 31C7.99497 -15.6674 80.9491 -2.98358 74.4205 43C73.7023 48.0591 72.7007 52.5147 70.1204 57C66.9871 62.4463 62.3374 67.3949 57 70.7284C49.9169 75.1521 43.1364 76 35 76C38.4959 70.9734 51.3952 56.7763 41.8519 51.1798C36.7226 48.1718 28.276 51.794 23 53C26.9971 45.9575 37.7004 44.2669 45 46C43.5476 38.177 43.0165 31.3533 52 29L52 28C45.8 27.5107 38.6465 25.6517 33.1335 29.7276C29.6142 32.3295 29.5981 36.308 28.0054 40C25.2401 46.4102 18.7711 50.8011 14.3248 55.9954C13.0033 57.5393 11.2885 60.7932 8.92052 60.7932C5.74864 60.7932 3.85663 55.3324 2.87654 53.0015C1.90468 50.6902 1.36923 48.4634 1 46L0 46L0 78L300 78L300 0L0 0z"/>
<path style="fill:#ff4b49; stroke:none;" d="M52 28L52 29C42.7399 30.476 43.1659 38.2961 45 46C38.3114 44.0237 25.6951 45.4563 23 53C26.3792 52.5032 29.6306 51.4981 33 50.9244C54.3291 47.2923 38.5835 68.2681 35 76C47.9952 76 59.1038 72.8231 67.4707 61.9992C83.0694 41.8198 73.3449 9.80186 49 2.22068C29.4679 -3.86174 6.97495 6.92883 1.48997 27C-0.53801 34.421 -2.14777 58.2748 8.23534 61.2485C12.2686 62.4036 19.5493 50.9793 22.2847 48.3349C27.5571 43.2378 27.5686 36.1105 32.2785 31.2276C37.6855 25.6222 45.2165 27.7087 52 28z"/>
<path style="fill:#ffffff; stroke:none;" d="M52 3L53 4L52 3z"/>
<path style="fill:#ff8181; stroke:none;" d="M15 7L16 8L15 7z"/>
<path style="fill:#010101; stroke:none;" d="M40.0432 8.85108C32.8126 10.9483 35.7788 21.7038 42.946 19.777C50.1177 17.849 47.0022 6.83267 40.0432 8.85108z"/>
<path style="fill:#ff4b49; stroke:none;" d="M122 16.5285C89.7494 19.3468 100.888 70.3644 131.999 58.8665C135.144 57.7043 141.688 53.169 136.677 49.7353C133.513 47.5667 129.12 51.4285 126 52.1705C119.89 53.6237 114.098 49.1398 111.282 43.9992C106.805 35.825 114.815 24.1278 124 24.3989C128.265 24.5248 132.621 29.7185 136.847 27.713C146.632 23.0692 126.039 16.1756 122 16.5285z"/>
<path style="fill:#ff6e6e; stroke:none;" d="M125 16L126 17L125 16z"/>
<path style="fill:#ff8181; stroke:none;" d="M165 16L166 17L165 16z"/>
<path style="fill:#ff4b49; stroke:none;" d="M146 61L153 61L153 45L182 45L182 61L189 61C189 50.5503 191.555 36.3447 186.045 27.0147C178.147 13.6411 156.113 12.5584 148.442 27.0039C143.46 36.3859 146 50.7039 146 61z"/>
<path style="fill:#ffffff; stroke:none;" d="M130 17L131 18L130 17z"/>
<path style="fill:#ff4b49; stroke:none;" d="M211 17L211 61L218 61L218 44C222.847 44 231.632 42.311 235.582 45.6034C242.594 51.448 239.667 60.8658 251 61L244 42C252.999 37.3211 251.734 22.8876 242.996 18.4568C234.698 14.2489 220.151 17 211 17z"/>
<path style="fill:#ff6e6e; stroke:none;" d="M241 17L242 18L241 17z"/>
<path style="fill:#ff4b49; stroke:none;" d="M270 17.5185C242.836 23.4117 252.488 66.352 280 60.4823C308.803 54.3372 298.828 11.2644 270 17.5185z"/>
<path style="fill:#ff6e6e; stroke:none;" d="M281 17L282 18L281 17M69 18L70 19L69 18z"/>
<path style="fill:#ff4b49; stroke:none;" d="M196 18L196 61L203 61L203 18L196 18z"/>
<path style="fill:#ff6e6e; stroke:none;" d="M243 18L244 19L243 18z"/>
<path style="fill:#010101; stroke:none;" d="M153 37L182 37C176.498 21.2561 157.837 20.2576 153 37M218 24L218 37C224.064 37 240.11 39.8586 242.288 31.9568C245.259 21.1773 223.43 24 218 24M274 24.6088C255.178 27.3051 259.058 55.6747 278 52.7855C295.943 50.0487 291.465 22.1069 274 24.6088z"/>
<path style="fill:#ff6e6e; stroke:none;" d="M277 24L278 25L277 24z"/>
<path style="fill:#ff8181; stroke:none;" d="M292 24L293 25L292 24z"/>
<path style="fill:#ff6e6e; stroke:none;" d="M0 31L1 32L0 31z"/>
<path style="fill:#ff8181; stroke:none;" d="M262 32L263 33L262 32M261 35L262 36L261 35z"/>
<path style="fill:#ff6e6e; stroke:none;" d="M110 43L111 44L110 43M235 44L236 45L235 44z"/>
<path style="fill:#ffffff; stroke:none;" d="M0 45L1 46L0 45z"/>
<path style="fill:#ff6e6e; stroke:none;" d="M21 48L22 49L21 48z"/>
<path style="fill:#ffffff; stroke:none;" d="M133 48L134 49L133 48M25 49L26 50L25 49z"/>
<path style="fill:#ff8181; stroke:none;" d="M132 49L133 50L132 49z"/>
<path style="fill:#ffffff; stroke:none;" d="M18 51L19 52L18 51z"/>
<path style="fill:#ff6e6e; stroke:none;" d="M72 52L73 53L72 52M139.333 52.6667L139.667 53.3333L139.333 52.6667z"/>
<path style="fill:#ff8181; stroke:none;" d="M258 53L259 54L258 53M249 54L250 55L249 54z"/>
<path style="fill:#ffffff; stroke:none;" d="M291 54L292 55L291 54z"/>
<path style="fill:#ff8181; stroke:none;" d="M6 60L7 61L6 60M59 69L60 70L59 69z"/>
</svg>
