<svg width="24" height="24" viewBox="0 0 24 24" fill="none" xmlns="http://www.w3.org/2000/svg">
<path fill-rule="evenodd" clip-rule="evenodd" d="M9.40136 3.00279C10.5558 1.00168 13.444 1.00168 14.5985 3.00279L21.9528 15.7503C23.1066 17.7503 21.6632 20.2495 19.3542 20.2495H4.64559C2.33661 20.2495 0.893183 17.7503 2.04703 15.7503L9.40136 3.00279ZM12.0001 8.24939C12.4143 8.24939 12.7501 8.58518 12.7501 8.99939V12.7494C12.7501 13.1636 12.4143 13.4994 12.0001 13.4994C11.5859 13.4994 11.2501 13.1636 11.2501 12.7494V8.99939C11.2501 8.58518 11.5859 8.24939 12.0001 8.24939ZM12.0001 16.4994C12.4143 16.4994 12.7501 16.1636 12.7501 15.7494C12.7501 15.3352 12.4143 14.9994 12.0001 14.9994C11.5859 14.9994 11.2501 15.3352 11.2501 15.7494C11.2501 16.1636 11.5859 16.4994 12.0001 16.4994Z" fill="#0F172A"/>
</svg>
